<svg width="24" height="24" viewBox="0 0 24 24" fill="none" xmlns="http://www.w3.org/2000/svg">
<!-- <rect width="16" height="2" transform="matrix(4.37114e-08 1 1 -4.37114e-08 20 4)" fill="white"/> -->
<rect width="2" height="16" transform="matrix(4.37114e-08 1 1 -4.37114e-08 2 11)" fill="white"/>
<rect width="2" height="2" transform="matrix(4.37114e-08 1 1 -4.37114e-08 14 13)" fill="white"/>
<rect width="2" height="2" transform="matrix(4.37114e-08 1 1 -4.37114e-08 12 15)" fill="white"/>
<rect width="2" height="2" transform="matrix(4.37114e-08 1 1 -4.37114e-08 10 17)" fill="white"/>
<rect width="2" height="2" transform="matrix(4.37114e-08 1 1 -4.37114e-08 14 9)" fill="white"/>
<rect width="2" height="2" transform="matrix(4.37114e-08 1 1 -4.37114e-08 12 7)" fill="white"/>
<rect width="2" height="2" transform="matrix(4.37114e-08 1 1 -4.37114e-08 10 5)" fill="white"/>
</svg>
